# xmcd CD database file
#
# Track frame offsets:
#	150
#	32897
#	62125
#	94350
#	110517
#	131550
#	158635
#	180375
#	199622
#	222272
#	243825
#	267075
#	292622
#	310957
#	326962
#
# Disc length: 4631 seconds
#
# Revision: 2
# Processed by: cddbd v1.4PL0 Copyright (c) Steve Scherf et al.
# Submitted via: CDex 1.50beta8
#
DISCID=d512150f
DTITLE=Dynasty - The Best Of Dynasty
DYEAR=1994
DGENRE=Disco
TTITLE0=I Don't Wanna Be A Freak (But I Can't Help Myself)
TTITLE1=Your Piece Of The Rock
TTITLE2=Satisfied
TTITLE3=I've Just Begun To Love You
TTITLE4=Something To Remember
TTITLE5=Do Me right
TTITLE6=Groove Control
TTITLE7=Adventures In The Land Of Music
TTITLE8=Here I Am
TTITLE9=Love In The Fast Lane
TTITLE10=Strokin'
TTITLE11=Check It Out
TTITLE12=Does That Ring A Bell
TTITLE13=Questions
TTITLE14=The Only One
EXTD=YEAR: 1994
EXTT0=
EXTT1=
EXTT2=
EXTT3=
EXTT4=
EXTT5=
EXTT6=
EXTT7=
EXTT8=
EXTT9=
EXTT10=
EXTT11=
EXTT12=
EXTT13=
EXTT14=
PLAYORDER=
